<svg xmlns="http://www.w3.org/2000/svg" viewBox="0 0 47.9 36.6"><title>z-email</title><path d="M47.4,5,45.5,3.1,27.9,20.7a5.8,5.8,0,0,1-8.1,0L2.2,3.2.3,5.1,13.4,18.2.3,31.3l1.9,1.9L15.3,20.1l2.6,2.6a8.21,8.21,0,0,0,11.8,0l2.6-2.6L45.4,33.2l1.9-1.9L34.2,18.2,47.4,5"/><path d="M43.7,36.6H4.2A4.23,4.23,0,0,1,0,32.4V4.2A4.23,4.23,0,0,1,4.2,0H43.7a4.23,4.23,0,0,1,4.2,4.2V32.4a4.23,4.23,0,0,1-4.2,4.2ZM4.1,2.7A1.37,1.37,0,0,0,2.7,4.1V32.3a1.37,1.37,0,0,0,1.4,1.4H43.6A1.37,1.37,0,0,0,45,32.3V4.1a1.37,1.37,0,0,0-1.4-1.4Z"/></svg>